HIERARCHY
ROOT root
{
	OFFSET 0.000000 0.000000 0.000000
	CHANNELS 6 Xposition Yposition Zposition Zrotation Yrotation Xrotation
	JOINT lhip
	{
		OFFSET 0.058581 -0.082280 -0.017664
		CHANNELS 3 Zrotation Yrotation Xrotation
		JOINT lknee
		{
			OFFSET 0.043451 -0.386469 0.008037
			CHANNELS 3 Zrotation Yrotation Xrotation
			JOINT lankle
			{
				OFFSET -0.014790 -0.426874 -0.037428
				CHANNELS 3 Zrotation Yrotation Xrotation
				JOINT ltoe
				{
					OFFSET 0.041054 -0.060286 0.122042
					CHANNELS 3 Zrotation Yrotation Xrotation
					End Site
					{
						OFFSET 0.000000 0.000000 0.000000
					}
				}
			}
		}
	}
	JOINT rhip
	{
		OFFSET -0.060310 -0.090513 -0.013543
		CHANNELS 3 Zrotation Yrotation Xrotation
		JOINT rknee
		{
			OFFSET -0.043257 -0.383688 -0.004843
			CHANNELS 3 Zrotation Yrotation Xrotation
			JOINT rankle
			{
				OFFSET 0.019056 -0.420046 -0.034562
				CHANNELS 3 Zrotation Yrotation Xrotation
				JOINT rtoe
				{
					OFFSET -0.034840 -0.062106 0.130323
					CHANNELS 3 Zrotation Yrotation Xrotation
					End Site
					{
						OFFSET 0.000000 0.000000 0.000000
					}
				}
			}
		}
	}
	JOINT lowerback
	{
		OFFSET 0.004439 0.124404 -0.038385
		CHANNELS 3 Zrotation Yrotation Xrotation
		JOINT upperback
		{
			OFFSET 0.004488 0.137956 0.026820
			CHANNELS 3 Zrotation Yrotation Xrotation
			JOINT chest
			{
				OFFSET -0.002265 0.056032 0.002855
				CHANNELS 3 Zrotation Yrotation Xrotation
				JOINT lowerneck
				{
					OFFSET -0.013390 0.211636 -0.033468
					CHANNELS 3 Zrotation Yrotation Xrotation
					JOINT upperneck
					{
						OFFSET 0.010113 0.088937 0.050410
						CHANNELS 3 Zrotation Yrotation Xrotation
						End Site
						{
							OFFSET 0.000000 0.000000 0.000000
						}
					}
				}
				JOINT lclavicle
				{
					OFFSET 0.071702 0.114000 -0.018898
					CHANNELS 3 Zrotation Yrotation Xrotation
					JOINT lshoulder
					{
						OFFSET 0.122921 0.045205 -0.019046
						CHANNELS 3 Zrotation Yrotation Xrotation
						JOINT lelbow
						{
							OFFSET 0.255332 -0.015649 -0.022946
							CHANNELS 3 Zrotation Yrotation Xrotation
							JOINT lwrist
							{
								OFFSET 0.265709 0.012698 -0.007375
								CHANNELS 3 Zrotation Yrotation Xrotation
								End Site
								{
									OFFSET 0.000000 0.000000 0.000000
								}
							}
						}
					}
				}
				JOINT rclavicle
				{
					OFFSET -0.082954 0.112472 -0.023707
					CHANNELS 3 Zrotation Yrotation Xrotation
					JOINT rshoulder
					{
						OFFSET -0.113228 0.046853 -0.008472
						CHANNELS 3 Zrotation Yrotation Xrotation
						JOINT relbow
						{
							OFFSET -0.260127 -0.014369 -0.031269
							CHANNELS 3 Zrotation Yrotation Xrotation
							JOINT rwrist
							{
								OFFSET -0.269108 0.006794 -0.006027
								CHANNELS 3 Zrotation Yrotation Xrotation
								End Site
								{
									OFFSET 0.000000 0.000000 0.000000
								}
							}
						}
					}
				}
			}
		}
	}
}
MOTION
Frames: 16
Frame Time: 0.033333
0.359320 0.173619 0.986855 86.041332 0.415291 91.110445 7.697543 5.543290 5.944065 -4.181613 -0.083652 -6.621708 -0.590200 8.613060 -2.887813 0.000000 -0.000000 0.000000 -7.216908 -3.267401 0.395952 2.153330 -0.939521 -0.147656 5.418367 -4.109511 -5.268663 0.000000 -0.000000 0.000000 -4.633987 3.645656 -8.235250 2.538852 -1.263413 12.612332 0.326402 0.653571 -4.397628 4.458255 4.497067 4.325101 4.457077 -3.710814 -2.193581 -25.377432 -1.679715 -0.105808 -57.932551 -6.667763 18.592612 2.084728 -20.201176 12.272648 -7.741192 -13.009809 12.351141 29.576587 3.354350 6.513742 54.426910 4.442089 15.010900 -8.890652 25.565128 0.691043 3.289783 10.920922 2.676880 
0.359119 0.173592 0.986816 86.063461 0.405557 91.085166 7.687355 5.531930 5.955808 -4.169941 -0.108788 -6.622723 -0.623695 8.623546 -2.900888 0.000000 -0.000000 0.000000 -7.223391 -3.259403 0.422448 2.147431 -0.903586 -0.160882 5.435111 -4.150547 -5.270855 0.000000 -0.000000 0.000000 -4.624187 3.611229 -8.154582 2.490482 -1.230442 12.471347 0.351435 0.671273 -4.279638 4.446958 4.460328 4.125833 4.443432 -3.712652 -1.957673 -25.292596 -1.716821 -0.066841 -58.018935 -6.663262 18.498950 2.096934 -20.204140 12.393974 -7.756590 -13.006454 12.342808 29.503269 3.348089 6.564720 54.544232 4.485023 15.000415 -8.955717 25.583881 0.701333 3.281878 10.903023 2.671513 
0.358946 0.173512 0.986761 86.099094 0.378889 91.072507 7.648745 5.504384 5.954968 -4.149168 -0.179787 -6.624132 -0.650588 8.610263 -2.869040 0.000000 -0.000000 0.000000 -7.251792 -3.246635 0.449431 2.147912 -0.858911 -0.188937 5.444273 -4.230317 -5.250745 0.000000 -0.000000 0.000000 -4.600565 3.550825 -8.053971 2.395024 -1.181964 12.277116 0.383373 0.679908 -4.124180 4.476955 4.683675 3.893237 4.358401 -3.308724 -1.625504 -25.107223 -1.766912 -0.045823 -58.230541 -6.626668 18.366023 2.159532 -20.196835 12.605159 -7.844434 -12.993507 12.359511 29.327295 3.331441 6.615142 54.819483 4.563860 14.998330 -9.052983 25.599197 0.675680 3.319238 10.856461 2.656523 
0.358700 0.173517 0.986754 86.104840 0.377113 91.063805 7.628033 5.502535 5.937141 -4.121513 -0.155641 -6.611731 -0.655209 8.632809 -2.883145 0.000000 -0.000000 0.000000 -7.256063 -3.262116 0.437065 2.152108 -0.848752 -0.179892 5.450138 -4.222876 -5.239118 0.000000 -0.000000 0.000000 -4.599827 3.526905 -8.022528 2.392769 -1.179821 12.235161 0.407653 0.706339 -4.036724 4.583778 4.824866 3.776646 4.277572 -3.088112 -1.552979 -24.996098 -1.799458 -0.029439 -58.259347 -6.567290 18.420265 1.972371 -20.332096 12.668749 -7.575418 -12.903184 12.168913 29.224153 3.351604 6.653238 54.941398 4.617613 15.016462 -9.091056 25.589206 0.662017 3.254139 10.828149 2.558269 
0.358605 0.173545 0.986739 86.102097 0.379016 91.059003 7.627828 5.491975 5.930171 -4.121610 -0.165012 -6.599610 -0.638659 8.639740 -2.866867 0.000000 -0.000000 0.000000 -7.253535 -3.242151 0.427236 2.149945 -0.852343 -0.163398 5.427726 -4.239012 -5.249595 0.000000 -0.000000 0.000000 -4.589135 3.524914 -7.984216 2.381944 -1.161875 12.189492 0.403967 0.708235 -4.031619 4.550634 4.796014 3.772440 4.277498 -3.121575 -1.554423 -25.031513 -1.760874 -0.032406 -58.322789 -6.577132 18.367922 2.175374 -20.274135 12.613674 -7.752210 -12.916111 12.238292 29.241406 3.343382 6.653013 54.949198 4.603990 15.008668 -9.137429 25.570226 0.671218 3.339741 10.841613 2.594880 
0.358434 0.173569 0.986749 86.098524 0.376372 91.031349 7.624187 5.479840 5.950564 -4.123899 -0.176728 -6.601807 -0.587883 8.636244 -2.844218 0.000000 -0.000000 0.000000 -7.258420 -3.225513 0.453838 2.153890 -0.875156 -0.175973 5.439563 -4.246870 -5.253204 0.000000 -0.000000 0.000000 -4.598190 3.531763 -7.923446 2.375473 -1.138481 12.149026 0.420471 0.717091 -4.036534 4.485398 4.753980 3.766196 4.313795 -3.172261 -1.531285 -25.052818 -1.767587 0.002550 -58.348859 -6.592675 18.306813 2.313119 -20.223314 12.642425 -7.904060 -12.990364 12.306090 29.243536 3.357710 6.674564 54.949642 4.559214 14.981665 -9.156335 25.600183 0.713760 3.371979 10.879549 2.581114 
0.358236 0.173517 0.986751 86.056987 0.388321 91.033469 7.635151 5.484734 5.941251 -4.124312 -0.140220 -6.598172 -0.593517 8.639421 -2.835889 0.000000 -0.000000 0.000000 -7.242369 -3.226146 0.424910 2.144902 -0.877558 -0.175089 5.453469 -4.196864 -5.243946 0.000000 -0.000000 0.000000 -4.591854 3.545419 -7.907468 2.374928 -1.123764 12.121606 0.430862 0.763094 -4.016586 4.469773 4.742584 3.748028 4.302481 -3.148966 -1.510803 -25.064970 -1.772954 -0.020350 -58.332423 -6.615216 18.320159 2.288785 -20.182420 12.671551 -7.848178 -12.974957 12.280458 29.226410 3.357856 6.672028 54.967855 4.561820 14.969186 -9.145092 25.614801 0.735144 3.389194 10.861834 2.502780 
0.358124 0.173551 0.986718 86.061045 0.387939 91.033585 7.632735 5.485126 5.926912 -4.122706 -0.142287 -6.588377 -0.599005 8.643259 -2.846745 0.000000 -0.000000 0.000000 -7.243960 -3.226096 0.414933 2.146792 -0.878410 -0.171602 5.452447 -4.196922 -5.239651 0.000000 -0.000000 0.000000 -4.588689 3.544399 -7.903881 2.375861 -1.122298 12.111215 0.433017 0.763957 -4.015451 4.466696 4.747483 3.753790 4.299933 -3.149846 -1.501650 -25.066679 -1.766937 -0.020989 -58.327968 -6.618454 18.318331 2.291496 -20.176798 12.675145 -7.848692 -12.984907 12.281383 29.229892 3.354971 6.675090 54.962662 4.571836 14.970453 -9.133435 25.608598 0.741408 3.383951 10.853409 2.501040 
0.357934 0.173559 0.986705 86.091035 0.376551 91.042287 7.621089 5.473252 5.889493 -4.125057 -0.129421 -6.574693 -0.643561 8.614639 -2.866505 0.000000 -0.000000 0.000000 -7.259579 -3.249536 0.387659 2.153990 -0.914058 -0.144987 5.455697 -4.179964 -5.234226 0.000000 -0.000000 0.000000 -4.612987 3.540544 -7.948871 2.393410 -1.136679 12.169098 0.440782 0.756069 -4.002921 4.452471 4.818493 3.782194 4.296986 -3.233705 -1.531182 -24.986744 -1.815208 -0.007969 -58.265938 -6.646113 18.344530 2.055578 -20.246646 12.693980 -7.751126 -13.021527 12.172646 29.227183 3.364149 6.686233 54.944412 4.647954 14.964791 -9.081779 25.578393 0.728004 3.297467 10.808237 2.517456 
0.357836 0.173562 0.986714 86.093245 0.373099 91.039715 7.621729 5.457126 5.884378 -4.135250 -0.107784 -6.574901 -0.644249 8.611076 -2.850968 0.000000 -0.000000 0.000000 -7.265900 -3.234124 0.388419 2.160972 -0.917528 -0.156536 5.459827 -4.193145 -5.201103 0.000000 -0.000000 0.000000 -4.592987 3.537862 -7.965267 2.388030 -1.117291 12.209012 0.432115 0.757200 -4.015064 4.450979 4.808305 3.780493 4.263466 -3.216040 -1.500075 -25.039479 -1.822127 -0.002221 -58.304637 -6.701198 18.302732 2.215618 -20.175131 12.634254 -7.856856 -13.038043 12.258249 29.222437 3.366313 6.686581 54.969720 4.649331 14.960886 -9.120048 25.607802 0.708012 3.335538 10.820871 2.513696 
0.357706 0.173584 0.986751 86.088320 0.373785 91.044123 7.612592 5.466192 5.860509 -4.121705 -0.121447 -6.555750 -0.627349 8.620109 -2.846273 0.000000 -0.000000 0.000000 -7.268821 -3.219539 0.374324 2.166628 -0.910661 -0.159195 5.464025 -4.200130 -5.202112 0.000000 -0.000000 0.000000 -4.575753 3.552452 -7.936117 2.392730 -1.096306 12.190168 0.431911 0.787748 -4.054336 4.388972 4.750399 3.806221 4.300182 -3.212766 -1.555690 -25.074058 -1.864406 0.021663 -58.340283 -6.700749 18.289057 2.328019 -20.127281 12.601032 -7.983626 -13.072252 12.338171 29.198927 3.399594 6.678065 55.003290 4.550351 14.921896 -9.154972 25.650044 0.702671 3.381636 10.849475 2.498856 
0.357653 0.173588 0.986780 86.085965 0.370716 91.039448 7.608795 5.465981 5.860868 -4.120992 -0.120958 -6.555968 -0.627245 8.623005 -2.846459 0.000000 -0.000000 0.000000 -7.272161 -3.219894 0.371196 2.166676 -0.908277 -0.156179 5.465367 -4.199154 -5.201651 0.000000 -0.000000 0.000000 -4.574606 3.552111 -7.933753 2.392058 -1.094178 12.184568 0.432474 0.789179 -4.051243 4.389624 4.750714 3.803778 4.300268 -3.210535 -1.550134 -25.073724 -1.866892 0.020345 -58.339342 -6.702636 18.289566 2.327066 -20.128780 12.604025 -7.980409 -13.071906 12.336396 29.199189 3.402495 6.680467 55.005545 4.558277 14.924731 -9.150660 25.648778 0.706896 3.383434 10.845695 2.499988 
0.357546 0.173590 0.986814 86.084366 0.358561 91.002752 7.602001 5.464307 5.893077 -4.129530 -0.124936 -6.549862 -0.630969 8.620472 -2.849622 0.000000 -0.000000 0.000000 -7.287955 -3.227230 0.401124 2.167557 -0.900561 -0.149463 5.464075 -4.194097 -5.198755 0.000000 -0.000000 0.000000 -4.571797 3.550117 -7.891898 2.384994 -1.085833 12.147808 0.440540 0.782359 -4.004895 4.393736 4.765789 3.794783 4.288308 -3.187602 -1.565722 -25.066016 -1.874354 0.009927 -58.342122 -6.717484 18.276430 2.304059 -20.138363 12.642048 -7.954343 -13.072642 12.307637 29.173836 3.420942 6.703628 55.017174 4.622290 14.939365 -9.125307 25.658917 0.737844 3.406791 10.813395 2.483506 
0.357392 0.173588 0.986862 86.081190 0.357135 90.962486 7.598987 5.473088 5.915671 -4.117979 -0.100706 -6.534592 -0.654628 8.623295 -2.841221 0.000000 -0.000000 0.000000 -7.288193 -3.241462 0.426536 2.162838 -0.903033 -0.144107 5.467371 -4.186349 -5.189601 0.000000 -0.000000 0.000000 -4.571313 3.551243 -7.863802 2.393740 -1.087538 12.164452 0.447147 0.797530 -3.991182 4.388042 4.748068 3.792339 4.275439 -3.190821 -1.600638 -24.995631 -1.959959 0.020149 -58.274412 -6.706485 18.341921 2.042687 -20.216383 12.681717 -7.793254 -13.029354 12.161079 29.107634 3.490839 6.732295 55.034414 4.643911 14.961339 -9.066490 25.654501 0.741606 3.372350 10.782193 2.446970 
0.357274 0.173643 0.986919 86.075509 0.346446 90.961963 7.587434 5.475390 5.910899 -4.121518 -0.108946 -6.522046 -0.665280 8.621452 -2.871767 0.000000 -0.000000 0.000000 -7.301092 -3.222804 0.433175 2.164230 -0.924890 -0.157987 5.469693 -4.173896 -5.172507 0.000000 -0.000000 0.000000 -4.545381 3.537925 -7.866000 2.355609 -1.093036 12.214870 0.426043 0.825575 -4.043677 4.431894 4.753209 3.836496 4.277265 -3.225322 -1.660012 -24.884693 -2.053192 0.038461 -58.305607 -6.637014 18.422721 1.955782 -20.270384 12.514918 -7.661979 -12.971766 12.064186 28.975455 3.765607 6.926161 55.215250 4.611913 15.051080 -9.160145 25.554864 0.437741 3.222637 10.847427 2.318433 
0.357200 0.173626 0.986898 86.095559 0.355944 90.958687 7.603889 5.476112 5.890290 -4.124450 -0.146061 -6.500707 -0.640883 8.590905 -2.848403 0.000000 -0.000000 0.000000 -7.289554 -3.235431 0.443484 2.162576 -0.913308 -0.168485 5.463205 -4.176456 -5.163717 0.000000 -0.000000 0.000000 -4.553351 3.539796 -7.830955 2.385389 -1.101681 12.129991 0.445752 0.809083 -3.998000 4.408095 4.743877 3.829766 4.273413 -3.164331 -1.646316 -24.944581 -2.006051 0.029009 -58.322308 -6.673606 18.415107 2.023413 -20.258976 12.622930 -7.686319 -12.942250 12.106460 29.065080 3.546844 6.788379 55.086446 4.656954 14.996240 -9.131283 25.650835 0.709325 3.365137 10.766023 2.415263 
